<svg width="56" height="49" viewBox="0 0 56 49" fill="none" xmlns="http://www.w3.org/2000/svg">
<path d="M51.4811 10.3787H38.4665V5.88012C38.4665 3.11362 36.2052 0.852295 33.4387 0.852295H22.0358C19.2693 0.852295 17.008 3.11362 17.008 5.88012V10.3787H4.61887C2.52594 10.3787 0.84198 12.0867 0.84198 14.1556V27.5551C0.84198 28.4452 1.56368 29.1429 2.42972 29.1429H4.01745V38.8377C4.01745 43.9617 8.2033 48.1476 13.3274 48.1476H42.7726C47.8967 48.1476 52.0825 43.9617 52.0825 38.8377V29.1429H53.6703C54.5604 29.1429 55.258 28.4212 55.258 27.5551V14.1556C55.258 12.0867 53.55 10.3787 51.4811 10.3787ZM20.1835 5.88012C20.1835 4.86975 21.0014 4.05182 22.0118 4.05182H33.4146C34.425 4.05182 35.2429 4.86975 35.2429 5.88012V10.3787H20.1594V5.88012H20.1835ZM48.883 38.8377C48.883 42.2056 46.1406 44.9721 42.7726 44.9721H13.3274C9.95943 44.9721 7.21698 42.2297 7.21698 38.8377V29.1429H17.417C18.2108 31.8853 20.0873 34.2188 22.6613 35.59L22.3486 40.4976C22.3245 40.9306 22.4689 41.3636 22.7816 41.7004C23.0943 42.0131 23.5033 42.2056 23.9363 42.2056H31.5142C31.9472 42.2056 32.3802 42.0131 32.6689 41.7004C32.9816 41.3877 33.1259 40.9547 33.1019 40.4976L32.7892 35.59C35.3632 34.2188 37.2396 31.8853 38.0335 29.1429H48.883V38.8377ZM29.5415 34.724L29.8302 39.0301H25.6203L25.909 34.724C25.9571 34.0264 25.5481 33.4009 24.9226 33.1363C22.0599 31.9815 20.2075 29.2391 20.2075 26.1839C20.2075 24.0669 21.1217 22.0702 22.6373 20.6509L23.0462 24.8608C23.0943 25.3179 23.3349 25.7268 23.7198 26.0155L26.8231 28.2047C27.3764 28.5896 28.1222 28.5896 28.6514 28.2047L31.7547 26.0155C32.1396 25.7509 32.3802 25.3419 32.4283 24.8608L32.8373 20.6509C34.3528 22.0462 35.267 24.0429 35.267 26.1839C35.267 29.2631 33.4146 32.0056 30.5519 33.1363C29.9024 33.4009 29.4934 34.0264 29.5415 34.724ZM52.0585 25.9674H38.4425C38.3703 21.8778 35.9165 18.149 32.1637 16.441C31.7066 16.2245 31.1533 16.2485 30.7203 16.5131C30.2632 16.7778 29.9745 17.2348 29.9264 17.74L29.325 23.8264L27.7373 24.957L26.1495 23.8264L25.5481 17.74C25.5 17.2348 25.2113 16.7778 24.7542 16.5131C24.2972 16.2485 23.7679 16.2245 23.3108 16.441C19.558 18.149 17.1042 21.8537 17.0321 25.9674H4.01745V14.1556C4.01745 13.8188 4.28207 13.5542 4.61887 13.5542H51.4811C51.8179 13.5542 52.0825 13.8188 52.0825 14.1556V25.9674H52.0585Z" fill="#002E6D"/>
</svg>
