<svg width="30" height="29" viewBox="0 0 30 29" fill="none" xmlns="http://www.w3.org/2000/svg">
<path d="M14.9421 27.7217C22.2332 27.7217 28.1438 21.8111 28.1438 14.52C28.1438 7.22894 22.2332 1.31836 14.9421 1.31836C7.65106 1.31836 1.74048 7.22894 1.74048 14.52C1.74048 21.8111 7.65106 27.7217 14.9421 27.7217Z" stroke="#002E6D" stroke-width="2" stroke-miterlimit="10"/>
<path fill-rule="evenodd" clip-rule="evenodd" d="M11.3091 20.2125L7.01653 15.9199C6.2876 15.191 6.2876 13.9993 7.01653 13.2703C7.74545 12.5414 8.94876 12.5414 9.66611 13.2703L12.6859 16.3017L20.2066 8.78107C20.9355 8.05214 22.1273 8.05214 22.8562 8.78107C23.5851 9.50999 23.5851 10.7017 22.8562 11.4307L14.005 20.2819C13.276 21.0108 12.0843 21.0108 11.3554 20.2819C11.3438 20.2588 11.3207 20.2356 11.3091 20.2125Z" fill="#F8A51C"/>
</svg>
