<svg width="67" height="65" viewBox="0 0 67 65" fill="none" xmlns="http://www.w3.org/2000/svg">
<path d="M43.413 39.7018C42.7903 39.7018 42.2922 40.1999 42.2922 40.8226V48.5687C42.2922 51.6572 39.7766 54.1728 36.6881 54.1728H24.5832C23.9606 54.1728 23.4624 54.671 23.4624 55.2936V57.5104L20.7974 54.8453C20.623 54.4468 20.2245 54.1728 19.7762 54.1728H12.4784C9.38994 54.1728 6.87433 51.6572 6.87433 48.5687V31.3081C6.87433 28.2197 9.38994 25.704 12.4784 25.704H23.8111C24.4338 25.704 24.9319 25.2059 24.9319 24.5832C24.9319 23.9605 24.4338 23.4624 23.8111 23.4624H12.4784C8.14459 23.4624 4.63269 26.9743 4.63269 31.3081V48.5687C4.63269 52.9026 8.14459 56.4144 12.4784 56.4144H19.1784L23.7862 61.0223C24.0104 61.2464 24.2844 61.346 24.5832 61.346C24.7327 61.346 24.8821 61.3211 25.0067 61.2713C25.4301 61.097 25.7041 60.6985 25.7041 60.2252V56.4144H36.6881C41.0219 56.4144 44.5338 52.9026 44.5338 48.5687V40.8226C44.5338 40.1999 44.0357 39.7018 43.413 39.7018Z" fill="#F8A51C"/>
<path d="M45.7293 3.9353H42.8899C33.8985 3.9353 26.6007 11.2331 26.6007 20.2245C26.6007 29.216 33.8985 36.5137 42.8899 36.5137H45.7293C47.1241 36.5137 48.5189 36.3394 49.8639 35.9907L54.0483 40.1751C54.2725 40.3992 54.5464 40.4989 54.8453 40.4989C54.9948 40.4989 55.1442 40.474 55.2687 40.4241C55.6922 40.2498 55.9661 39.8513 55.9661 39.3781V32.9022C57.7345 31.4576 59.2041 29.6394 60.2501 27.6219C61.4208 25.3305 62.0186 22.8398 62.0186 20.2245C62.0186 11.258 54.7208 3.9353 45.7293 3.9353ZM54.1728 31.4576C53.8988 31.6569 53.7245 32.0056 53.7245 32.3543V36.6881L50.9847 33.9483C50.7606 33.7241 50.4866 33.6245 50.1877 33.6245C50.0881 33.6245 49.9635 33.6494 49.8639 33.6743C48.5189 34.0728 47.149 34.297 45.7293 34.297H42.8899C35.1438 34.297 28.8423 27.9955 28.8423 20.2494C28.8423 12.5033 35.1438 6.20185 42.8899 6.20185H45.7293C53.4754 6.20185 59.7769 12.5033 59.7769 20.2494C59.7769 24.6829 57.7345 28.7926 54.1728 31.4576Z" fill="#F8A51C"/>
<path d="M44.9572 11.8059C43.6371 11.7063 42.3669 12.1546 41.3955 13.0761C40.449 13.9728 39.8762 15.2431 39.8762 16.5382C39.8762 17.1609 40.3743 17.659 40.997 17.659C41.6197 17.659 42.1178 17.1609 42.1178 16.5382C42.1178 15.8408 42.3918 15.1932 42.9148 14.72C43.4379 14.2468 44.0855 13.9977 44.8078 14.0475C46.0531 14.1222 47.0494 15.1185 47.1241 16.3639C47.1988 17.6092 46.4018 18.7051 45.1814 18.9791C44.1851 19.2033 43.5126 20.0501 43.5126 21.0464V23.7364C43.5126 24.359 44.0107 24.8572 44.6334 24.8572C45.2561 24.8572 45.7542 24.359 45.7542 23.7364V21.146C48.0208 20.5981 49.5401 18.5308 49.3657 16.1895C49.1914 13.8483 47.2985 11.9802 44.9572 11.8059Z" fill="#F8A51C"/>
<path d="M44.6335 27.074C44.3346 27.074 44.0606 27.1985 43.8364 27.3978C43.6372 27.597 43.5126 27.8959 43.5126 28.1948C43.5126 28.4937 43.6372 28.7677 43.8364 28.9918C44.0357 29.1911 44.3346 29.3156 44.6335 29.3156C44.9323 29.3156 45.2063 29.1911 45.4305 28.9918C45.6297 28.7926 45.7543 28.4937 45.7543 28.1948C45.7543 27.8959 45.6297 27.6219 45.4305 27.3978C45.2063 27.1985 44.9323 27.074 44.6335 27.074Z" fill="#F8A51C"/>
<path d="M35.4676 38.7056H11.8059C11.1833 38.7056 10.6851 39.2037 10.6851 39.8264C10.6851 40.4491 11.1833 40.9472 11.8059 40.9472H35.4676C36.0903 40.9472 36.5885 40.4491 36.5885 39.8264C36.5885 39.2037 36.0654 38.7056 35.4676 38.7056Z" fill="#F8A51C"/>
<path d="M35.4676 44.9822C35.1687 44.9822 34.8948 45.1067 34.6706 45.306C34.4713 45.5052 34.3468 45.8041 34.3468 46.103C34.3468 46.4019 34.4713 46.6759 34.6706 46.9C34.8699 47.0993 35.1687 47.2238 35.4676 47.2238C35.7665 47.2238 36.0405 47.0993 36.2646 46.9C36.4639 46.7008 36.5884 46.4019 36.5884 46.103C36.5884 45.8041 36.4639 45.5301 36.2646 45.306C36.0405 45.0818 35.7416 44.9822 35.4676 44.9822Z" fill="#F8A51C"/>
<path d="M11.8059 44.9822C11.1833 44.9822 10.6851 45.4803 10.6851 46.103C10.6851 46.7257 11.1833 47.2238 11.8059 47.2238H31.0591C31.6818 47.2238 32.1799 46.7257 32.1799 46.103C32.1799 45.4803 31.6818 44.9822 31.0591 44.9822H11.8059Z" fill="#F8A51C"/>
<path d="M28.1699 32.4041H11.8059C11.1833 32.4041 10.6851 32.9022 10.6851 33.5249C10.6851 34.1475 11.1833 34.6457 11.8059 34.6457H28.1699C28.7926 34.6457 29.2907 34.1475 29.2907 33.5249C29.2907 32.9271 28.7926 32.4041 28.1699 32.4041Z" fill="#F8A51C"/>
</svg>
