<svg width="47" height="59" viewBox="0 0 47 59" fill="none" xmlns="http://www.w3.org/2000/svg">
<path fill-rule="evenodd" clip-rule="evenodd" d="M23.5 2.54663C14.1 2.54663 6.42761 10.2116 6.42761 19.6667C6.42761 22.8689 7.85031 26.8526 9.90815 30.8112C14.4557 39.5351 22.0519 48.3347 22.0519 48.3347C22.4076 48.7633 22.9411 48.9902 23.5 48.9902C24.059 48.9902 24.5671 48.7381 24.9482 48.3347C24.9482 48.3347 32.5444 39.5351 37.0919 30.8112C39.1498 26.8526 40.5725 22.8689 40.5725 19.6667C40.5725 10.2116 32.9254 2.54663 23.5 2.54663ZM23.5 6.30347C30.8422 6.30347 36.7617 12.3043 36.7617 19.6667C36.7617 23.3479 34.399 28.1385 31.706 32.6013C28.7844 37.3919 25.38 41.8043 23.5 44.124C21.62 41.8043 18.2157 37.3919 15.2941 32.6013C12.5757 28.1385 10.2384 23.3479 10.2384 19.6667C10.2384 12.3043 16.1833 6.30347 23.5 6.30347Z" fill="#002E6D"/>
<path fill-rule="evenodd" clip-rule="evenodd" d="M23.5 12.5815C19.6638 12.5815 16.5389 15.6828 16.5389 19.4901C16.5389 23.2974 19.6638 26.3986 23.5 26.3986C27.3362 26.3986 30.4611 23.2974 30.4611 19.4901C30.4611 15.6828 27.3362 12.5815 23.5 12.5815ZM23.5 16.3384C25.253 16.3384 26.6503 17.7503 26.6503 19.4649C26.6503 21.2046 25.2276 22.5914 23.5 22.5914C21.747 22.5914 20.3498 21.1794 20.3498 19.4649C20.3498 17.7503 21.747 16.3384 23.5 16.3384Z" fill="#002E6D"/>
<path fill-rule="evenodd" clip-rule="evenodd" d="M35.593 43.0144C37.6508 43.6196 39.353 44.376 40.5216 45.2837C41.2838 45.8636 41.8427 46.4183 41.8427 47.099C41.8427 47.5025 41.6141 47.8555 41.2838 48.2337C40.7503 48.8388 39.9627 49.3683 38.9719 49.8726C35.4914 51.6375 29.8514 52.7469 23.5254 52.7469C17.1995 52.7469 11.5595 51.6375 8.07893 49.8726C7.08812 49.3683 6.30055 48.8388 5.76704 48.2337C5.43677 47.8807 5.20812 47.5025 5.20812 47.099C5.20812 46.4183 5.76704 45.8636 6.5292 45.2837C7.69785 44.4012 9.40001 43.6448 11.4578 43.0144C12.4487 42.7119 13.033 41.6529 12.7281 40.6696C12.4233 39.661 11.3562 39.1063 10.3654 39.4089C7.24055 40.3418 4.80163 41.6277 3.35353 43.0396C2.05785 44.2751 1.44812 45.6619 1.44812 47.0738C1.44812 48.8388 2.46434 50.6037 4.49677 52.0661C8.07893 54.6379 15.2687 56.5037 23.5762 56.5037C31.8838 56.5037 39.0735 54.6379 42.6557 52.0661C44.6881 50.6037 45.7043 48.8388 45.7043 47.0738C45.7043 45.6619 45.0692 44.2751 43.7989 43.0396C42.3254 41.6277 39.9119 40.3418 36.787 39.4089C35.7962 39.1063 34.7292 39.6862 34.4243 40.6696C34.0179 41.6529 34.6022 42.7119 35.593 43.0144Z" fill="#002E6D"/>
</svg>
