<svg width="61" height="62" viewBox="0 0 61 62" fill="none" xmlns="http://www.w3.org/2000/svg">
<g clip-path="url(#clip0_2_13)">
<path d="M59.3194 9.3989C59.3194 5.13513 55.8337 1.64941 51.5699 1.64941H7.9051C3.64132 1.64941 0.155609 5.13513 0.155609 9.3989C0.155609 12.7913 2.3653 15.6856 5.44643 16.7127C5.32194 17.1795 5.19745 17.6464 5.19745 18.1443V44.4117C5.19745 47.1193 7.37602 49.2979 10.0837 49.2979H28.0724V52.7836L22.2837 58.6035C21.5367 59.3504 21.5367 60.5642 22.2837 61.3423C22.6571 61.7157 23.1551 61.9025 23.6531 61.9025C24.151 61.9025 24.649 61.7157 25.0224 61.3423L30.0954 56.2071L35.1684 61.3423C35.5418 61.7157 36.0398 61.9025 36.5378 61.9025C37.0357 61.9025 37.5337 61.7157 37.9071 61.3423C38.6541 60.5953 38.6541 59.3816 37.9071 58.6035L31.9939 52.628C31.9628 52.5969 31.9316 52.5346 31.9005 52.5035V49.2979H49.8893C52.5969 49.2979 54.7755 47.1193 54.7755 44.4117V18.1132C54.7755 17.553 54.651 17.055 54.4954 16.5571C57.3275 15.4055 59.3194 12.6356 59.3194 9.3989ZM50.9163 44.3805C50.9163 44.9407 50.4495 45.4076 49.8893 45.4076H10.0837C9.52347 45.4076 9.05663 44.9407 9.05663 44.3805V18.1132C9.05663 17.6464 9.36785 17.2729 9.80357 17.1484H50.2005C50.6362 17.2729 50.9474 17.6464 50.9474 18.1132V44.3805H50.9163ZM51.5388 13.2892H50.4806C50.2939 13.2581 50.076 13.227 49.8893 13.227H10.0837C9.86581 13.227 9.67908 13.2581 9.49234 13.2892H7.9051C5.75765 13.2892 4.01479 11.5464 4.01479 9.3989C4.01479 7.25146 5.75765 5.5086 7.9051 5.5086H51.5699C53.7173 5.5086 55.4602 7.25146 55.4602 9.3989C55.4602 11.5464 53.7173 13.2892 51.5388 13.2892Z" fill="white"/>
<path d="M35.9464 26.8896C34.8882 26.8896 34.0168 27.7611 34.0168 28.8192V39.8988C34.0168 40.957 34.8882 41.8284 35.9464 41.8284C37.0046 41.8284 37.876 40.957 37.876 39.8988V28.8192C37.876 27.7611 37.0046 26.8896 35.9464 26.8896Z" fill="white"/>
<path d="M41.3306 22.7505C40.2724 22.7505 39.401 23.6219 39.401 24.6801V39.899C39.401 40.9571 40.2724 41.8285 41.3306 41.8285C42.3887 41.8285 43.2602 40.9571 43.2602 39.899V24.6801C43.2602 23.6219 42.3887 22.7505 41.3306 22.7505Z" fill="white"/>
<path d="M46.6525 18.7979C45.5944 18.7979 44.7229 19.6693 44.7229 20.7274V39.8989C44.7229 40.957 45.5944 41.8285 46.6525 41.8285C47.7107 41.8285 48.5821 40.957 48.5821 39.8989V20.7274C48.551 19.6693 47.7107 18.7979 46.6525 18.7979Z" fill="white"/>
<path d="M21.6923 22.937H20.2296C15.6234 22.937 11.8576 26.7028 11.8576 31.309C11.8576 35.9151 15.6234 39.6809 20.2296 39.6809C22.4081 39.6809 24.4933 38.8406 26.0495 37.3156L27.1076 36.2885L21.6612 30.9666V22.937H21.6923ZM22.8438 36.1329C22.0658 36.5686 21.1632 36.7865 20.2296 36.7865C17.2107 36.7865 14.752 34.3278 14.752 31.309C14.752 28.788 16.4637 26.6717 18.7979 26.0181V32.1493L22.8438 36.1329Z" fill="white"/>
<path d="M25.0535 20.9141C24.2444 20.9141 23.6219 21.5676 23.6219 22.3457V28.8192C23.6219 29.1926 23.7775 29.5661 24.0576 29.8462L28.0413 33.7988C28.3214 34.0789 28.726 34.2033 29.0995 34.2033C29.1617 34.2033 29.224 34.2033 29.2862 34.2033C29.5974 34.1722 29.8464 34.0477 30.0954 33.8299C31.6826 32.4294 32.5541 30.4687 32.5541 28.3212C32.4918 24.2442 29.1617 20.9141 25.0535 20.9141ZM28.9439 30.6865L26.4852 28.2278V24.0263C28.2903 24.6176 29.5663 26.3294 29.5663 28.3212C29.5974 29.1926 29.3796 29.9707 28.9439 30.6865Z" fill="white"/>
</g>
<defs>
<clipPath id="clip0_2_13">
<rect width="61" height="61.9337" fill="white"/>
</clipPath>
</defs>
</svg>
