<svg width="67" height="43" viewBox="0 0 67 43" fill="none" xmlns="http://www.w3.org/2000/svg">
<g clip-path="url(#clip0_2_126)">
<path d="M66.1502 21.2441L60.0241 3.76521C59.8274 3.17509 59.1811 2.80977 58.5629 2.95028L52.1839 4.21483L40.9434 0.870792C39.3136 0.393072 37.5432 0.11206 35.548 1.26421L33.5528 2.41636L31.5577 1.26421C29.5625 0.11206 27.7921 0.393072 26.1622 0.870792L14.9499 4.21483L9.13292 2.66927C8.51469 2.50066 7.84026 2.83788 7.61545 3.4561L1.01168 20.9631C0.78687 21.5533 1.03978 22.1996 1.5737 22.5087L7.05343 25.6841C6.66001 26.5834 6.57571 27.595 6.85672 28.5786C7.16584 29.7307 7.89647 30.6861 8.90811 31.2763C9.72304 31.754 10.6223 31.9226 11.4653 31.8383C11.4934 33.3277 12.2803 34.7608 13.6853 35.5757C14.697 36.1659 15.9053 36.3064 17.0293 36.0254C17.2823 35.9692 17.5071 35.8849 17.7319 35.7725C18.0972 36.6436 18.7154 37.4023 19.6147 37.9081C20.6263 38.4983 21.8347 38.6388 22.9587 38.3578C23.2959 38.2735 23.605 38.1329 23.9141 37.9924C24.3076 38.8074 24.9258 39.4818 25.7126 39.9595C26.387 40.3529 27.1458 40.5497 27.9045 40.5497C28.2979 40.5497 28.6913 40.4935 29.0567 40.4091C29.7311 40.2405 30.3212 39.9033 30.827 39.4818L34.705 41.7299C35.4075 42.1233 36.1663 42.32 36.8969 42.32C38.4143 42.32 39.9037 41.5332 40.7467 40.1C41.084 39.5099 41.2807 38.8917 41.3369 38.2454C42.2642 38.6669 43.3039 38.7512 44.2875 38.4702C45.4396 38.1611 46.3951 37.4304 46.9852 36.4188C47.3786 35.7163 47.5753 34.9575 47.5753 34.1988C48.1373 34.255 48.6994 34.2269 49.2333 34.0864C50.3854 33.7773 51.3409 33.0466 51.931 32.035C52.2682 31.4449 52.4649 30.7704 52.5211 30.1241C52.9989 30.2927 53.5047 30.377 53.9824 30.377C55.4999 30.377 56.9892 29.5902 57.8323 28.157C58.31 27.3421 58.4786 26.4429 58.3943 25.5717L65.4196 22.9302C66.0659 22.6211 66.375 21.9186 66.1502 21.2441ZM10.2008 29.0563C9.77925 28.8034 9.47013 28.4099 9.32963 27.9322C9.18912 27.4545 9.27343 26.9487 9.52634 26.5272L11.2967 23.436C11.5496 23.0145 11.943 22.7054 12.4208 22.5649C12.8985 22.4244 13.4043 22.5087 13.8258 22.7616C14.7251 23.2674 15.0342 24.4196 14.5002 25.3188L12.7299 28.4099C12.224 29.2811 11.1 29.5902 10.2008 29.0563ZM17.5352 32.6813C17.2823 33.1028 16.8888 33.412 16.4111 33.5525C15.9334 33.693 15.4276 33.6087 15.0061 33.3558C14.1068 32.8499 13.7977 31.6978 14.3316 30.7985L15.0061 29.6464L16.7764 26.5553L18.3501 23.8295C18.8559 22.9302 20.0081 22.6211 20.9073 23.155C21.3288 23.4079 21.6379 23.8013 21.7784 24.2791C21.919 24.7568 21.8347 25.2626 21.5817 25.6841L21.104 26.4991L18.0129 31.8383L17.5352 32.6813ZM23.4364 35.0137C23.1835 35.4352 22.7901 35.7444 22.3124 35.8849C21.8347 36.0254 21.3288 35.9411 20.9073 35.6881C20.0081 35.1823 19.699 34.0302 20.2329 33.1309L23.324 27.7917C23.8298 26.8925 24.982 26.5834 25.8812 27.1173C26.3027 27.3702 26.6118 27.7636 26.7524 28.2413C26.8929 28.7191 26.8086 29.2249 26.5556 29.6464L25.9093 30.7704L24.1389 33.8616L23.4364 35.0137ZM28.4103 37.9081C27.9326 38.0486 27.4268 37.9643 27.0053 37.7114C26.5837 37.4585 26.2746 37.0651 26.1341 36.5874C25.9936 36.1097 26.0779 35.6038 26.3027 35.1823L28.0731 32.0912C28.5789 31.192 29.7311 30.8828 30.6303 31.4168C31.5296 31.9226 31.8387 33.0747 31.3047 33.974L29.5344 37.0651C29.3096 37.4585 28.888 37.7676 28.4103 37.9081ZM38.5548 38.7793C38.049 39.6785 36.8969 39.9876 35.9976 39.4537L32.3164 37.3461L33.5247 35.2385C33.7495 34.8451 33.9182 34.4236 34.0025 34.0302L37.8523 36.2502C38.7516 36.7279 39.0607 37.88 38.5548 38.7793ZM57.4388 23.1269C57.1016 22.7054 56.6801 22.3401 56.1743 22.031C55.6966 21.75 54.0105 20.7383 51.0037 18.9117C50.4135 18.5464 49.6267 18.7431 49.2614 19.3333C48.8961 19.9234 49.0928 20.7102 49.6829 21.0755C52.7178 22.9021 54.432 23.9419 54.9097 24.2229C55.809 24.7287 56.1181 25.8808 55.5842 26.7801C55.0783 27.6793 53.9262 27.9884 53.027 27.4545L50.3011 25.8808L40.1566 20.0358C39.5384 19.6705 38.7797 19.8953 38.4143 20.5135C38.049 21.1317 38.2738 21.8905 38.8921 22.2558L49.0366 28.1289C49.9358 28.6348 50.2449 29.7869 49.711 30.6861C49.4581 31.1077 49.0647 31.4168 48.587 31.5573C48.1092 31.6978 47.6034 31.6135 47.1819 31.3606L45.3834 30.3208L36.4754 25.1783C35.8571 24.813 35.0984 25.0378 34.7331 25.656C34.3678 26.2743 34.5926 27.033 35.2108 27.3983L44.1189 32.5408C45.0181 33.0466 45.3272 34.1988 44.7933 35.098C44.5404 35.5195 44.147 35.8287 43.6693 35.9692C43.1915 36.1097 42.6857 36.0254 42.2642 35.7725L39.2012 34.0021L33.5809 30.7704C33.2156 30.1241 32.6817 29.5902 31.9792 29.1968C31.1642 28.7191 30.265 28.5504 29.3939 28.6348C29.3939 28.2975 29.3377 27.9603 29.2534 27.6231C28.9442 26.471 28.2136 25.5155 27.202 24.9254C26.3308 24.4196 25.3473 24.251 24.42 24.3634C24.3919 24.1105 24.3638 23.8857 24.2795 23.6327C23.9703 22.4806 23.2397 21.5252 22.2281 20.935C20.3453 19.8672 18.0129 20.2887 16.664 21.8905C16.2987 21.3565 15.821 20.8788 15.2028 20.5135C14.1911 19.9234 12.9828 19.7829 11.8587 20.0639C10.7066 20.373 9.75114 21.1036 9.16102 22.1153L8.40229 23.436L3.878 20.8226L9.69494 5.39508L14.7251 6.71584C14.9499 6.77204 15.2028 6.77204 15.4276 6.71584L26.9491 3.28749C28.2979 2.89408 29.2253 2.78167 30.3493 3.428L31.0799 3.84952L26.6118 6.43483C24.4762 7.67128 23.7455 10.3971 24.982 12.5047C26.1622 14.5561 28.7475 15.2867 30.9956 14.1626C32.204 13.5725 33.9463 12.7857 35.267 12.2799C36.2506 12.87 38.4705 14.2189 39.9318 15.1181C40.5219 15.4834 41.3088 15.2867 41.6741 14.6966C42.0394 14.1064 41.8427 13.3196 41.2526 12.9543C39.7632 12.0551 38.4705 11.2682 37.5432 10.7062C37.0655 10.4252 36.7002 10.2004 36.4473 10.0599C35.8852 9.72266 35.7447 9.63836 35.3794 9.63836C35.2389 9.63836 35.0984 9.66646 34.9579 9.72266C33.4404 10.2566 31.2485 11.2401 29.8435 11.9427C28.8318 12.4485 27.6797 12.1675 27.1739 11.2963C26.64 10.3971 26.9491 9.21684 27.8764 8.71102L36.8126 3.4842C37.9366 2.83788 38.864 2.92218 40.2128 3.3437L51.7343 6.77204C51.931 6.82824 52.1558 6.82824 52.3525 6.80014L57.9728 5.67609L63.3401 20.935L57.4388 23.1269Z" fill="white"/>
<path d="M45.4115 15.7925C44.7089 15.7925 44.1469 16.3545 44.1469 17.057C44.1469 17.7596 44.7089 18.3216 45.4115 18.3216C46.114 18.3216 46.676 17.7596 46.676 17.057C46.7041 16.3545 46.114 15.7925 45.4115 15.7925Z" fill="white"/>
</g>
<defs>
<clipPath id="clip0_2_126">
<rect width="66.8808" height="42.4328" fill="white"/>
</clipPath>
</defs>
</svg>
