<svg width="56" height="58" viewBox="0 0 56 58" fill="none" xmlns="http://www.w3.org/2000/svg">
<g clip-path="url(#clip0_2_21)">
<path d="M55.4982 1.74323C55.0755 1.45267 54.5472 1.37342 54.0718 1.53191L28.1321 10.513L2.19251 1.53191C1.71703 1.37342 1.18873 1.45267 0.76609 1.74323C0.343449 2.0338 0.105713 2.50927 0.105713 3.01116V45.6451C0.105713 46.2791 0.50194 46.8602 1.10949 47.098L27.2076 57.0564C27.3925 57.1357 27.5774 57.1621 27.7623 57.1621C27.9472 57.1621 28.1585 57.1357 28.3434 57.0564L55.1284 46.3847C55.7095 46.147 56.1057 45.5659 56.1057 44.9319V3.03757C56.1321 2.50927 55.8944 2.06021 55.4982 1.74323ZM53.0151 30.6149L50.1887 31.6187V15.7696C50.1887 15.2678 49.951 14.7923 49.5284 14.5017C49.1057 14.2112 48.6038 14.1319 48.1284 14.2904L34.4453 18.9659C33.8114 19.1772 33.3887 19.7847 33.3887 20.4451V37.5885L29.6906 38.9093V13.2866L53.0151 5.20361V30.6149ZM47.0718 32.7281L36.5321 36.4791V21.581L47.0718 17.9621V32.7281ZM3.24911 5.23003L26.5736 13.313V53.4904L3.24911 44.5885V5.23003ZM29.6906 53.1734V42.2376L53.0151 33.9168V43.9017L29.6906 53.1734Z" fill="white"/>
<path d="M7.66037 15.9546L20.9207 20.3395C21.0792 20.3924 21.2377 20.4188 21.4226 20.4188C22.083 20.4188 22.6906 19.9961 22.9019 19.3357C23.166 18.5169 22.717 17.6452 21.8981 17.3546L8.66415 12.9961C7.84528 12.732 6.97358 13.181 6.68302 13.9999C6.41886 14.8188 6.84151 15.6905 7.66037 15.9546Z" fill="white"/>
<path d="M21.8981 25.3054L8.66415 20.9204C7.84528 20.6563 6.97358 21.1053 6.68302 21.9242C6.41887 22.7431 6.86792 23.6148 7.68679 23.9053L20.9472 28.2903C21.1057 28.3431 21.2641 28.3695 21.4491 28.3695C22.1094 28.3695 22.717 27.9469 22.9283 27.2865C23.166 26.4676 22.717 25.5695 21.8981 25.3054Z" fill="white"/>
<path d="M21.8982 33.8639L8.63778 29.479C7.81891 29.2149 6.94722 29.6639 6.65665 30.4828C6.3925 31.3017 6.84155 32.1734 7.66042 32.4639L20.9208 36.8488C21.0793 36.9017 21.2378 36.9281 21.4227 36.9281C22.0831 36.9281 22.6906 36.5054 22.9019 35.8451C23.1661 35.0262 22.717 34.1281 21.8982 33.8639Z" fill="white"/>
<path d="M21.8981 42.4225L8.66415 38.0376C7.84528 37.7735 6.97358 38.2225 6.68302 39.0414C6.41887 39.8603 6.86792 40.732 7.68679 41.0225L20.9472 45.4074C21.1057 45.4603 21.2641 45.4867 21.4491 45.4867C22.1094 45.4867 22.717 45.064 22.9283 44.4037C23.166 43.5584 22.717 42.6867 21.8981 42.4225Z" fill="white"/>
</g>
<defs>
<clipPath id="clip0_2_21">
<rect width="56" height="57.0566" fill="white"/>
</clipPath>
</defs>
</svg>
