<svg class="opening" width="64" height="60" viewBox="0 0 64 60" fill="none" xmlns="http://www.w3.org/2000/svg">
<g clip-path="url(#clip0_2_28)">
<path d="M62.3857 23.9999C61.6714 23.2856 60.6428 22.7999 59.5857 22.7999H53.6143L37.6714 6.28563C37.5 4.97134 36.9571 3.82849 36.0714 2.99992C35.0428 1.9142 33.6143 1.34277 32.0714 1.34277C30.5286 1.34277 29.1 1.99992 28.0714 2.99992C27.1857 3.88563 26.6428 5.02849 26.4714 6.28563L10.5286 22.8856H4.55713C3.47141 22.8856 2.47141 23.3142 1.75713 24.0856C1.04284 24.7999 0.557129 25.8285 0.557129 26.8856V54.6856C0.557129 55.7713 1.04284 56.7713 1.75713 57.4856C2.47141 58.1999 3.49999 58.6856 4.55713 58.6856H59.5571C60.6428 58.6856 61.6428 58.1999 62.3571 57.4856C63.0714 56.7713 63.5571 55.7428 63.5571 54.6856V26.8571C63.5857 25.7428 63.1 24.7713 62.3857 23.9999ZM30.4143 5.28563C30.8428 4.85706 31.4428 4.57134 32.0714 4.57134C32.7 4.57134 33.3286 4.85706 33.7286 5.28563C34.1571 5.7142 34.4428 6.3142 34.4428 6.94277C34.4428 7.59992 34.1571 8.19992 33.7286 8.59992L33.6714 8.65706C33.2428 9.08563 32.6428 9.3142 32.0714 9.3142C31.4143 9.3142 30.8143 9.08563 30.4143 8.59992C29.9857 8.17134 29.7 7.57134 29.7 6.94277C29.7 6.28563 29.9286 5.68563 30.4143 5.28563ZM27.3 10.0571C27.5286 10.4285 27.7857 10.7142 28.0143 10.9428C29.1 12.0285 30.5286 12.6856 32.0714 12.6856C33.5571 12.6856 34.9286 12.0856 35.9571 11.1428C36.0143 11.0856 36.0143 11.0856 36.0714 11.0285C36.3571 10.7428 36.6143 10.4285 36.7857 10.1428L49.0714 22.9713H15.0143L27.3 10.0571ZM60.1286 55.1999C60.0143 55.3142 59.8428 55.3713 59.5857 55.3713H4.55713C4.3857 55.3713 4.1857 55.3142 4.01427 55.1428C3.89999 55.0285 3.7857 54.8571 3.7857 54.5999V26.8571C3.7857 26.6856 3.84284 26.4856 3.95713 26.3142C4.07141 26.1999 4.24284 26.1428 4.49999 26.1428H59.5C59.6714 26.1428 59.8714 26.1999 60.0428 26.3142C60.1571 26.4285 60.2143 26.5999 60.2143 26.8571V54.6571H60.2714C60.3 54.8571 60.2428 55.0285 60.1286 55.1999Z" fill="white"/>
<path d="M30.8714 34.5141C30.3286 34.1427 29.7857 33.9141 29.1286 33.7999C28.5286 33.6284 27.8143 33.5713 27.1 33.5713C26.2143 33.5713 25.5 33.6284 25.0143 33.6284C24.4714 33.6284 24.1857 33.6284 24.1286 33.6856C23.3 33.7427 22.7571 34.1713 22.5286 34.8856C22.4714 34.9999 22.4714 35.1713 22.4143 35.3713C22.4143 35.4284 22.4143 35.5427 22.4143 35.5999C22.4143 35.7141 22.4143 35.7713 22.4143 35.8284V36.057C22.4143 36.1141 22.4143 36.2284 22.4143 36.3427V36.5713C22.4143 36.6284 22.4143 36.6856 22.4143 36.7427C22.4143 36.9141 22.4143 37.3427 22.4143 38.1141C22.4143 38.4856 22.4143 38.7713 22.4143 38.9999C22.4143 39.1713 22.4143 39.3713 22.4143 39.4856C22.4143 43.1141 22.3571 45.457 22.3571 46.457C22.3571 47.3999 22.9571 47.9427 24.1 47.9427C24.6429 47.9427 25.1286 47.8284 25.4143 47.5713C25.7 47.3427 25.9 46.9141 25.9 46.4284C25.9 46.1427 25.9 45.5999 25.9 44.8284C25.9 44.457 25.9 44.1713 25.9 43.7999C25.9 43.6284 25.9 43.5141 25.9 43.3713H26.3857C27.0429 43.3713 27.6429 43.3713 28.1286 43.3141C28.6143 43.3141 28.9571 43.257 29.2143 43.1999C29.7571 43.0856 30.2429 42.9141 30.7 42.5999C31.1286 42.3141 31.5286 41.9427 31.8429 41.457C32.2143 41.0284 32.4429 40.5713 32.6143 40.0284C32.7857 39.5427 32.8429 38.9999 32.9 38.4856C32.9571 37.5999 32.8429 36.8284 32.4714 36.0856C32.0714 35.5141 31.5857 34.9141 30.8714 34.5141ZM29.4429 38.9713C29.3857 39.1427 29.2714 39.3427 29.2143 39.5141C28.9857 39.8856 28.7286 40.057 28.3857 40.1713C28.2143 40.2284 27.9571 40.2284 27.6714 40.2856C27.3857 40.2856 27.0143 40.2856 26.5286 40.2856H25.9286V39.9141C25.9286 39.6856 25.9286 39.4284 25.9286 39.257C25.9286 38.7713 25.9286 38.2284 25.9286 37.457V36.6856V36.6284H26.1571C26.3286 36.6284 26.7 36.6284 27.1857 36.6284C27.8429 36.6284 28.3286 36.6856 28.6714 36.857C28.9571 36.9713 29.2143 37.1427 29.3286 37.3999C29.4429 37.6284 29.5571 37.9427 29.5571 38.2856C29.5571 38.5713 29.5 38.7999 29.4429 38.9713Z" fill="white"/>
<path d="M16.6143 33.9711C15.7857 33.5996 14.8715 33.4854 13.9286 33.4854C12.1286 33.4854 10.4715 34.1425 9.10003 35.5711C8.38574 36.2854 7.84288 37.1139 7.50003 38.0282C7.1286 38.9139 6.95717 39.9425 6.95717 41.0854C6.95717 43.1711 7.67146 44.8568 9.04288 46.1711C9.75717 46.8282 10.4715 47.3139 11.3 47.5996C12.1286 47.8854 12.9572 48.0854 13.8715 48.0854C14.9 48.0854 15.7857 47.9139 16.6143 47.5425C17.4429 47.1711 18.2143 46.6568 18.8715 45.9425C19.5286 45.2282 20.0715 44.3996 20.4143 43.5425C20.7857 42.6568 20.9572 41.6854 20.9572 40.6854C20.9572 38.6568 20.2429 36.9139 18.8715 35.5996C18.1857 34.7996 17.4429 34.3425 16.6143 33.9711ZM17.2715 42.1996C17.1 42.6854 16.8429 43.1425 16.5 43.5711C15.8429 44.3996 15.0143 44.7711 14.0429 44.7711C13.5 44.7711 13.0143 44.7139 12.6143 44.5425C12.1857 44.3711 11.8429 44.1139 11.4715 43.7139C11.1 43.3425 10.8715 42.9425 10.7 42.4568C10.5286 41.9711 10.4715 41.4282 10.4715 40.8568C10.4715 40.2568 10.5286 39.6568 10.7 39.1996C10.8715 38.7139 11.1286 38.2568 11.4143 37.8854C12.0715 37.1139 12.8429 36.7425 13.8143 36.7425C14.3572 36.7425 14.7572 36.8568 15.2429 36.9711C15.6715 37.1425 16.0715 37.4568 16.4429 37.7996C16.8143 38.1711 17.1 38.5711 17.2715 39.0568C17.3857 39.5425 17.5 40.0854 17.5 40.6568C17.5286 41.1996 17.4429 41.7139 17.2715 42.1996Z" fill="white"/>
<path d="M42.2143 44.7139C42.1 44.7139 41.9286 44.7139 41.6143 44.7139C41.3857 44.7139 41.1857 44.7139 40.9572 44.7139C40.4714 44.7139 39.9286 44.7139 39.3 44.771C38.8143 44.771 38.2143 44.771 37.4429 44.771V43.1139C37.4429 42.8282 37.4429 42.5139 37.4429 42.3425H41.0143C41.5 42.3425 41.8429 42.2282 42.1572 41.971C42.3857 41.7425 42.5857 41.371 42.5857 40.8853C42.5857 40.2853 42.4714 39.8568 42.1 39.6282C41.9286 39.5139 41.7286 39.4567 41.5 39.3996C41.2714 39.3425 41.0143 39.3425 40.7857 39.3425C39.9572 39.3425 38.9857 39.3996 37.8714 39.3996H37.5857L37.6429 37.7996V36.7139H38.0143C39.2714 36.7139 40.3286 36.7139 41.1286 36.7139C41.9 36.7139 42.3286 36.7139 42.5 36.6568H42.5572C42.9286 36.5425 43.1572 36.371 43.2714 36.0567C43.3857 35.8282 43.5 35.4568 43.4429 35.0282C43.4429 34.8568 43.3857 34.5996 43.3286 34.4853C43.2714 34.3139 43.1572 34.1139 43.0429 33.9996C42.9286 33.8853 42.7572 33.771 42.5572 33.7139C42.3857 33.6568 42.1857 33.5996 41.9572 33.5996H41.4714H40.2714C39.3286 33.5996 38.1857 33.5996 36.9286 33.5996H36.1572C35.6143 33.5996 35.2143 33.7139 34.9 33.971C34.7286 34.0853 34.6143 34.2568 34.4714 34.4568C34.3572 34.6282 34.3572 34.8853 34.3 35.1139C34.3 35.771 34.3 36.4853 34.3 37.371V38.6853V39.6282C34.3 40.5139 34.3 41.371 34.3 42.2567C34.3 42.7425 34.3 43.1425 34.3 43.5139C34.3 43.8853 34.3 44.2282 34.3 44.4568V45.1139V45.3425C34.3 45.4567 34.3 45.5139 34.3 45.6282C34.3 45.7425 34.3 45.8568 34.3 45.9996C34.3 46.2853 34.3572 46.5425 34.4714 46.771C34.5857 46.9996 34.7572 47.1996 34.9572 47.3139C35.1286 47.4282 35.3857 47.4853 35.7286 47.5425C36.0143 47.5996 36.3857 47.5996 36.8143 47.5996H42.3C42.7857 47.5996 43.1857 47.4282 43.4429 47.171C43.6714 46.8853 43.8714 46.5139 43.8714 45.971C43.8714 45.4853 43.7572 45.1425 43.5 44.8282C43.0429 44.8853 42.7 44.7139 42.2143 44.7139Z" fill="white"/>
<path d="M57.1286 42.0853V35.2853C57.1286 34.1425 56.5857 33.5425 55.4715 33.5425C55.1857 33.5425 54.9286 33.5996 54.7 33.6568C54.4715 33.7139 54.2715 33.8282 54.1 34.0282C53.9286 34.1996 53.8715 34.3996 53.7286 34.6282C53.6715 34.8568 53.6143 35.1139 53.6143 35.4568L53.6715 39.2853C53.6715 39.9996 53.6715 40.7711 53.6715 41.5996L53.2429 40.9425L48.8143 34.7425C48.7 34.5711 48.5286 34.3711 48.3857 34.2568C48.2715 34.1425 48.1 33.9711 47.9572 33.8853C47.8429 33.7711 47.6715 33.7139 47.4715 33.6568C47.2715 33.5996 47.1 33.5996 46.9286 33.5996C46.4429 33.5996 45.9857 33.7139 45.6143 33.9711C45.3857 34.0853 45.2429 34.2568 45.1286 34.4568C45.0143 34.6282 44.9572 34.8853 44.9572 35.1139V37.3711V41.6568C44.9572 42.7996 44.9572 43.7425 44.9572 44.5139C44.9572 45.5425 44.9572 46.1139 44.9572 46.3139C44.9572 46.7996 45.1286 47.1996 45.5 47.4568C45.7857 47.6853 46.2143 47.8282 46.7572 47.8282C47.3 47.8282 47.7 47.6568 47.9572 47.3425C48.2429 47.0568 48.3857 46.6282 48.3857 46.0853C48.3857 45.9139 48.3857 45.4853 48.3857 44.7711C48.3857 44.1711 48.3857 43.3996 48.3857 42.4568C48.3857 41.5139 48.3857 40.7139 48.3857 39.9996C48.3857 39.7711 48.3857 39.5139 48.3857 39.3425L53.3857 46.5139C53.5 46.6853 53.6143 46.8853 53.7572 47.0568C53.8715 47.2282 53.9857 47.3425 54.1286 47.4282C54.2429 47.5425 54.4143 47.5996 54.6143 47.6568C54.7857 47.7139 54.9857 47.7139 55.1572 47.7139C55.7 47.7139 56.1 47.5996 56.5286 47.2853C56.7 47.1711 56.9 46.9996 57.0143 46.7425C57.1286 46.5711 57.1857 46.3139 57.1857 46.0853C57.1857 45.3139 57.1857 44.4282 57.1857 43.3996L57.1286 42.6282V42.0853Z" fill="white"/>
</g>
<defs>
<clipPath id="clip0_2_28">
<rect width="63.1429" height="60" fill="white" transform="translate(0.5)"/>
</clipPath>
</defs>
</svg>
