<svg width="58" height="59" viewBox="0 0 58 59" fill="none" xmlns="http://www.w3.org/2000/svg">
<path d="M49.9004 20.6499C48.9857 20.4669 47.0419 20.6956 46.0814 22.9367C46.0814 22.9595 46.0585 22.9595 46.0585 22.9824L43.0857 30.9406C42.5826 30.6433 41.988 30.4832 41.3934 30.4832C40.7531 30.4832 40.1357 30.6661 39.5868 31.0092L31.9717 35.8801C29.0903 37.6409 27.5582 39.9506 26.7349 41.8944C25.9116 39.9506 24.3795 37.6409 21.4981 35.8801L13.9058 31.0092C13.357 30.6661 12.7395 30.4832 12.0992 30.4832C11.5047 30.4832 10.9101 30.6433 10.407 30.9406L7.43412 22.9824C7.43412 22.9595 7.41125 22.9595 7.41125 22.9367C6.45079 20.6956 4.50699 20.4669 3.59226 20.6499C1.73994 20.9929 0.573657 22.5937 0.802339 24.446C0.802339 24.4917 0.825207 24.5375 0.825207 24.5603L4.02676 37.4809C4.87288 40.8882 7.20544 44.3185 10.224 46.6739L10.2469 46.6968L15.3694 50.3557V52.1851C15.3694 53.3057 16.2841 54.2204 17.4047 54.2204H26.712C26.712 54.2204 26.712 54.2204 26.7349 54.2204C26.7349 54.2204 26.7349 54.2204 26.7578 54.2204H36.0651C37.1857 54.2204 38.1004 53.3057 38.1004 52.1851V50.3557L43.2229 46.6968L43.2458 46.6739C46.2644 44.3185 48.5969 40.8882 49.443 37.4809L52.6446 24.5603C52.6446 24.5146 52.6675 24.4917 52.6675 24.446C52.9419 22.5937 51.7527 20.9929 49.9004 20.6499ZM25.7287 47.2227C25.7287 47.2456 25.7287 47.2913 25.7287 47.3142V52.1851H17.4275V49.8526C17.4275 49.5324 17.2675 49.2123 16.993 49.0293L11.4818 45.0502C8.85195 42.9921 6.74808 39.9049 6.01629 36.9778L2.81474 24.1258C2.74614 23.3483 3.2035 22.7766 3.98102 22.6165H4.00389C4.04963 22.6165 4.98722 22.4336 5.53606 23.6913L8.89769 32.7243C8.50893 33.8677 8.76048 35.1483 9.65234 36.0859C9.67521 36.1316 9.72094 36.1545 9.76668 36.1774L14.912 40.2479C15.3465 40.5909 15.9868 40.5223 16.3299 40.0878C16.6729 39.6533 16.6043 39.013 16.1698 38.67L11.1159 34.6681C10.6814 34.165 10.7043 33.3646 11.1845 32.8844C11.4361 32.6328 11.7562 32.4956 12.1221 32.4956C12.3737 32.4956 12.6252 32.5642 12.831 32.7014L20.4461 37.5952C20.4461 37.5952 20.469 37.5952 20.469 37.6181C22.8702 39.0816 24.4709 41.1169 25.2713 43.701C25.8659 45.6448 25.7287 47.1999 25.7287 47.2227ZM50.7008 24.1258L47.4992 36.9778C46.7675 39.9049 44.6864 42.9921 42.0337 45.0502L36.4996 49.0065C36.2252 49.1894 36.0651 49.5095 36.0651 49.8297V52.1623H27.7868V47.2913C27.7868 47.2685 27.7868 47.2227 27.7868 47.1999C27.7868 47.177 27.6725 45.622 28.2671 43.6553C29.0675 41.0712 30.6682 39.0359 33.0694 37.5723C33.0694 37.5723 33.0923 37.5723 33.0923 37.5495L40.7074 32.6557C40.9132 32.5185 41.1647 32.4499 41.4163 32.4499C41.7593 32.4499 42.1023 32.5871 42.3539 32.8386C42.8341 33.3189 42.857 34.1192 42.4225 34.6223L37.3686 38.6243C36.9341 38.9673 36.8426 39.6076 37.2085 40.0421C37.5516 40.4766 38.1919 40.5681 38.6264 40.2022L43.7489 36.1545C43.7946 36.1316 43.8175 36.0859 43.8632 36.063C44.7551 35.1254 45.0066 33.822 44.6178 32.7014L47.9795 23.6685C48.4826 22.5022 49.3287 22.5708 49.5345 22.5937C49.5345 22.5937 49.5345 22.5937 49.5574 22.5937C50.312 22.7766 50.7694 23.3712 50.7008 24.1258Z" fill="#F8A51C"/>
<path d="M12.9225 25.6583H18.8225V30.049C18.8225 31.1696 19.7372 32.0843 20.8578 32.0843H22.1384C22.7101 32.0843 23.1446 31.6269 23.1446 31.0781C23.1446 30.5293 22.6872 30.0719 22.1384 30.0719H20.8578V24.7893C20.8578 24.7436 20.8578 24.7207 20.8578 24.675C20.8578 24.6521 20.8578 24.6064 20.8578 24.5835C20.8806 22.9599 22.207 21.6564 23.8306 21.6564H29.6849C31.3085 21.6564 32.6349 22.9599 32.6578 24.5835C32.6578 24.6064 32.6578 24.6521 32.6578 24.675C32.6578 24.7207 32.6578 24.7436 32.6578 24.7893V30.0719H31.4C30.8283 30.0719 30.3938 30.5293 30.3938 31.0781C30.3938 31.6269 30.8512 32.0843 31.4 32.0843H32.6578C33.7783 32.0843 34.693 31.1696 34.693 30.049V25.6583H40.593C41.7593 25.6583 42.6969 24.7207 42.6969 23.5544V18.1804C42.6969 15.8707 41.119 13.9269 38.9923 13.3552C39.9299 12.3262 40.5016 10.9769 40.5016 9.49049C40.5016 6.33468 37.9403 3.77344 34.7845 3.77344C31.6287 3.77344 29.0674 6.33468 29.0674 9.49049C29.0674 9.90212 29.1132 10.3137 29.2047 10.7254C28.4729 10.3824 27.6496 10.1994 26.7806 10.1994C25.9116 10.1994 25.0884 10.3824 24.3566 10.7254C24.4481 10.3366 24.4938 9.92499 24.4938 9.49049C24.4938 6.33468 21.9326 3.77344 18.7768 3.77344C15.6209 3.77344 13.0597 6.33468 13.0597 9.49049C13.0597 10.9769 13.6314 12.3262 14.569 13.3552C12.4423 13.9269 10.8643 15.8707 10.8643 18.1804V23.5544C10.8415 24.7207 11.7791 25.6583 12.9225 25.6583ZM40.6616 18.1804V23.5544C40.6616 23.6002 40.6388 23.6231 40.593 23.6231H34.6016C34.2357 21.7479 32.8178 20.2614 30.9884 19.7583C31.926 18.7293 32.4977 17.38 32.4977 15.8936C32.4977 15.6649 32.4748 15.4362 32.4519 15.2075H37.7116C39.3353 15.2304 40.6616 16.5568 40.6616 18.1804ZM34.7616 5.80871C36.7969 5.80871 38.4434 7.45522 38.4434 9.49049C38.4434 11.5258 36.7969 13.1723 34.7616 13.1723C32.7264 13.1723 31.0799 11.5258 31.0799 9.49049C31.0799 7.45522 32.7264 5.80871 34.7616 5.80871ZM30.4395 15.9165C30.4395 17.9517 28.793 19.5982 26.7578 19.5982C24.7225 19.5982 23.076 17.9517 23.076 15.9165C23.076 13.8812 24.7225 12.2347 26.7578 12.2347C28.793 12.2118 30.4395 13.8812 30.4395 15.9165ZM18.7539 5.80871C20.7892 5.80871 22.4357 7.45522 22.4357 9.49049C22.4357 11.5258 20.7892 13.1723 18.7539 13.1723C16.7186 13.1723 15.0721 11.5258 15.0721 9.49049C15.0721 7.45522 16.7186 5.80871 18.7539 5.80871ZM12.8539 18.1804C12.8539 16.5339 14.1802 15.2075 15.8267 15.2075H21.0864C21.0636 15.4362 21.0407 15.6649 21.0407 15.8936C21.0407 17.38 21.6124 18.7293 22.55 19.7583C20.7205 20.2386 19.3027 21.7479 18.9368 23.6231H12.9225C12.8767 23.6231 12.8539 23.6002 12.8539 23.5544V18.1804Z" fill="#F8A51C"/>
<path d="M27.6038 30.4833C27.5581 30.4376 27.5352 30.369 27.4666 30.3232C27.4209 30.2775 27.3752 30.2318 27.3066 30.186C27.2608 30.1403 27.1922 30.1174 27.1236 30.0945C27.055 30.0717 27.0093 30.0488 26.9407 30.0259C26.8035 30.0031 26.6662 30.0031 26.5519 30.0259C26.4833 30.0488 26.4147 30.0488 26.369 30.0945C26.3004 30.1174 26.2546 30.1403 26.186 30.186C26.1403 30.2318 26.0717 30.2546 26.0259 30.3232C25.9802 30.369 25.9345 30.4147 25.8887 30.4833C25.843 30.529 25.8201 30.5976 25.7973 30.6663C25.7744 30.7349 25.7515 30.7806 25.7286 30.8492C25.7058 30.9178 25.7058 30.9864 25.7058 31.055C25.7058 31.1236 25.7058 31.1922 25.7286 31.2608C25.7515 31.3294 25.7515 31.398 25.7973 31.4438C25.8201 31.5124 25.843 31.5581 25.8887 31.6267C25.9345 31.6725 25.9573 31.7411 26.0259 31.7868C26.0717 31.8325 26.1174 31.8783 26.186 31.924C26.2318 31.9697 26.3004 31.9926 26.369 32.0155C26.4376 32.0383 26.4833 32.0612 26.5519 32.0841C26.6205 32.1069 26.6891 32.1069 26.7577 32.1069C26.8263 32.1069 26.8949 32.1069 26.9635 32.0841C27.0321 32.0612 27.1007 32.0612 27.1465 32.0155C27.2151 31.9926 27.2608 31.9697 27.3294 31.924C27.3752 31.8783 27.4438 31.8554 27.4895 31.7868C27.5352 31.7411 27.581 31.6953 27.6267 31.6267C27.6724 31.581 27.6953 31.5124 27.7182 31.4438C27.7411 31.3752 27.7639 31.3294 27.7868 31.2608C27.8097 31.1922 27.8097 31.1236 27.8097 31.055C27.8097 30.9864 27.8097 30.9178 27.7868 30.8492C27.7639 30.7806 27.7639 30.712 27.7182 30.6663C27.6724 30.5976 27.6496 30.5519 27.6038 30.4833Z" fill="#F8A51C"/>
</svg>
