<svg width="62" height="58" viewBox="0 0 62 58" fill="none" xmlns="http://www.w3.org/2000/svg">
<path d="M51.5315 6.96338H29.4276C26.8668 6.96338 24.8002 9.05247 24.8002 11.5908V25.7877L20.6894 23.7435C20.5546 23.6761 20.4198 23.6087 20.2626 23.5413C21.4756 22.2834 22.2169 20.5762 22.2169 18.7117C22.2169 14.848 19.072 11.7031 15.2083 11.7031C11.3446 11.7031 8.19978 14.848 8.19978 18.7117C8.19978 20.8008 9.12077 22.6877 10.6034 23.9681C7.90775 25.4956 5.84113 28.4608 5.84113 32.1223V36.8621C5.84113 38.9062 7.16646 40.6359 9.00845 41.2649V49.5089C9.00845 50.3176 9.65989 50.9915 10.491 50.9915H19.9706C20.7792 50.9915 21.4531 50.3401 21.4531 49.5089V32.931L26.1704 35.2896C27.9675 36.1882 30.4385 35.6491 31.5392 33.6049H36.8181L31.2247 48.9923C30.9551 49.756 31.337 50.6096 32.1008 50.8792C32.9768 51.1937 33.763 50.6546 33.9877 50.0031L39.9629 33.6049H40.9962L47.0164 50.0031C47.241 50.6321 48.0273 51.2161 48.9033 50.8792C49.6671 50.5872 50.049 49.756 49.7794 48.9923L44.1186 33.6049H51.554C54.0699 33.6049 56.1814 31.5832 56.1814 28.9774V11.6133C56.1814 8.98508 54.0474 6.96338 51.5315 6.96338ZM15.2083 14.6458C17.4547 14.6458 19.2517 16.4654 19.2517 18.6892C19.2517 20.9131 17.4322 22.7326 15.2083 22.7326C12.962 22.7326 11.1649 20.9131 11.1649 18.6892C11.1425 16.4654 12.962 14.6458 15.2083 14.6458ZM28.9784 32.0325V32.0549C28.8885 32.3469 28.6414 32.5716 28.3718 32.6839C28.0798 32.7962 27.7429 32.7962 27.4733 32.639C24.6654 31.2462 20.622 29.2021 20.622 29.2021C19.6336 28.7079 18.488 29.4267 18.488 30.5274V48.0039H11.9512V40.0069C11.9512 39.1983 11.2997 38.5244 10.4686 38.5244C9.54757 38.5244 8.78382 37.7606 8.78382 36.8396V32.0998C8.78382 28.5057 11.7265 25.6753 15.2083 25.6753H16.5112C17.4996 25.6753 18.488 25.9 19.364 26.3492C19.364 26.3492 26.6871 29.9883 28.5516 30.9093C28.9334 31.1564 29.1356 31.6057 28.9784 32.0325ZM53.2163 28.9774C53.2163 29.4267 53.0366 29.8535 52.7221 30.168C52.4076 30.4825 51.9808 30.6622 51.5315 30.6622H31.8312V30.6397L35.4927 23.3167C35.8521 22.5979 35.5601 21.6993 34.8413 21.3399C34.1225 20.9805 33.2239 21.2725 32.8645 21.9913L29.7421 28.2362C29.1581 27.9441 28.4842 27.6072 27.7653 27.2478V11.6133C27.7653 10.6923 28.5291 9.92854 29.4501 9.92854H51.554C52.0033 9.92854 52.4301 10.1082 52.7446 10.4227C53.059 10.7372 53.2388 11.164 53.2388 11.6133V28.9774H53.2163Z" fill="#002E6D"/>
<path d="M48.3867 13.2759H32.5949C31.7863 13.2759 31.1124 13.9273 31.1124 14.7585C31.1124 15.5671 31.7638 16.241 32.5949 16.241H48.3867C49.1953 16.241 49.8692 15.5896 49.8692 14.7585C49.8468 13.9498 49.1953 13.2759 48.3867 13.2759Z" fill="#002E6D"/>
<path d="M48.3867 18.8242H40.4796C39.6709 18.8242 38.997 19.4757 38.997 20.3068C38.997 21.1155 39.6484 21.7894 40.4796 21.7894H48.3867C49.1954 21.7894 49.8693 21.1379 49.8693 20.3068C49.8468 19.4757 49.1954 18.8242 48.3867 18.8242Z" fill="#002E6D"/>
<path d="M48.3867 24.3503H40.4796C39.6709 24.3503 38.997 25.0018 38.997 25.8329C38.997 26.6416 39.6484 27.3155 40.4796 27.3155H48.3867C49.1954 27.3155 49.8693 26.6641 49.8693 25.8329C49.8468 25.0018 49.1954 24.3503 48.3867 24.3503Z" fill="#002E6D"/>
</svg>
